<svg width="43" height="33" viewBox="0 0 43 33" fill="none" xmlns="http://www.w3.org/2000/svg">
<path d="M36.2767 2.71542C33.5613 1.44958 30.6213 0.530833 27.5588 0C27.5049 0.000767064 27.4535 0.0227825 27.4158 0.0612504C27.0483 0.735 26.6196 1.61292 26.3338 2.28667C23.0854 1.79697 19.7821 1.79697 16.5338 2.28667C16.2479 1.5925 15.8192 0.735 15.4313 0.0612504C15.4108 0.0204171 15.3496 0 15.2883 0C12.2258 0.530833 9.30625 1.44958 6.57042 2.71542C6.55 2.71542 6.52959 2.73583 6.50917 2.75625C0.955835 11.0658 -0.575415 19.1508 0.180002 27.1542C0.180002 27.195 0.200418 27.2358 0.241252 27.2563C3.91625 29.9513 7.44834 31.5846 10.9396 32.6667C11.0008 32.6871 11.0621 32.6667 11.0825 32.6258C11.8992 31.5029 12.6342 30.3188 13.2671 29.0733C13.3079 28.9917 13.2671 28.91 13.1854 28.8896C12.0217 28.4404 10.9192 27.9096 9.83709 27.2971C9.75542 27.2563 9.75542 27.1338 9.81667 27.0725C10.0413 26.9092 10.2658 26.7254 10.4904 26.5621C10.5313 26.5213 10.5925 26.5213 10.6333 26.5417C17.6567 29.7471 25.2313 29.7471 32.1729 26.5417C32.2138 26.5213 32.275 26.5213 32.3158 26.5621C32.5404 26.7458 32.765 26.9092 32.9896 27.0929C33.0713 27.1542 33.0713 27.2767 32.9692 27.3175C31.9075 27.9504 30.7846 28.4608 29.6208 28.91C29.5392 28.9304 29.5188 29.0325 29.5392 29.0938C30.1925 30.3392 30.9275 31.5233 31.7238 32.6463C31.785 32.6667 31.8463 32.6871 31.9075 32.6667C35.4192 31.5846 38.9513 29.9513 42.6263 27.2563C42.6671 27.2358 42.6875 27.195 42.6875 27.1542C43.5858 17.9054 41.1971 9.88167 36.3583 2.75625C36.3379 2.73583 36.3175 2.71542 36.2767 2.71542ZM14.3288 22.2746C12.2258 22.2746 10.47 20.335 10.47 17.9463C10.47 15.5575 12.185 13.6179 14.3288 13.6179C16.4929 13.6179 18.2079 15.5779 18.1875 17.9463C18.1875 20.335 16.4725 22.2746 14.3288 22.2746ZM28.5592 22.2746C26.4563 22.2746 24.7004 20.335 24.7004 17.9463C24.7004 15.5575 26.4154 13.6179 28.5592 13.6179C30.7233 13.6179 32.4383 15.5779 32.4179 17.9463C32.4179 20.335 30.7233 22.2746 28.5592 22.2746Z" fill="white"/>
</svg>
